<?xml version="1.0" standalone="no"?>
<!DOCTYPE svg PUBLIC "-//W3C//DTD SVG 20010904//EN"
 "http://www.w3.org/TR/2001/REC-SVG-20010904/DTD/svg10.dtd">
<svg version="1.0" xmlns="http://www.w3.org/2000/svg"
 width="1788.000000pt" height="1788.000000pt" viewBox="0 0 1788.000000 1788.000000"
 preserveAspectRatio="xMidYMid meet">

<g transform="translate(0.000000,1788.000000) scale(0.100000,-0.100000)"
fill="#000000" stroke="none">
<path d="M8537 17273 l-109 -4 6 -117 c3 -64 8 -232 11 -372 3 -140 8 -337 11
-437 l7 -183 130 0 130 0 -7 219 -6 219 86 7 c67 5 89 4 100 -7 7 -7 29 -51
48 -98 18 -47 56 -139 84 -205 l50 -120 138 3 c77 2 141 6 143 8 4 4 -22 67
-84 199 -25 52 -45 97 -45 99 0 3 -18 44 -40 91 -39 85 -42 105 -16 105 26 0
105 82 132 135 24 51 26 63 22 152 -3 84 -8 105 -30 143 -37 62 -94 115 -153
142 -47 22 -62 23 -275 24 -124 0 -274 -1 -333 -3z m449 -203 c37 -14 62 -45
74 -91 13 -47 5 -84 -26 -126 -32 -42 -66 -51 -209 -55 l-120 -3 -3 143 -3
142 130 0 c71 0 142 -5 157 -10z"/>
<path d="M8110 17243 c-37 -6 -563 -75 -675 -88 -27 -3 -51 -8 -54 -10 -9 -9
131 -1081 143 -1092 8 -8 757 86 769 97 4 3 2 52 -5 108 -10 90 -14 102 -31
102 -10 0 -127 -14 -259 -31 -131 -17 -241 -29 -243 -28 -4 5 -34 233 -30 237
1 1 91 14 201 28 109 14 200 27 202 29 6 6 -18 189 -26 196 -4 4 -92 -4 -196
-18 -104 -13 -195 -22 -201 -19 -13 4 -40 205 -29 215 3 3 118 20 255 37 138
18 252 34 254 36 3 2 -1 49 -8 103 -13 105 -14 107 -67 98z"/>
<path d="M9875 17086 c-36 -75 -65 -138 -65 -140 0 -2 -28 -62 -61 -132 -62
-129 -98 -208 -149 -319 -15 -33 -48 -103 -73 -155 -52 -110 -78 -172 -75
-176 5 -5 159 -24 191 -24 34 0 40 10 99 153 17 43 28 57 43 57 11 0 90 -9
175 -20 85 -11 158 -20 161 -20 4 0 9 -19 12 -42 12 -84 29 -193 31 -195 5 -6
266 -36 271 -32 5 6 -92 573 -130 759 -8 36 -16 85 -20 110 -3 25 -15 96 -27
157 -24 129 -4 113 -168 133 -47 6 -100 13 -118 17 l-32 5 -65 -136z m174
-323 c12 -76 27 -160 32 -187 5 -27 8 -51 5 -53 -5 -5 -215 23 -222 29 -4 5
17 55 88 208 16 36 37 82 45 103 8 20 18 37 22 37 4 0 18 -62 30 -137z"/>
<path d="M10856 17048 c-13 -43 -115 -401 -143 -503 -28 -105 -104 -368 -135
-472 -12 -40 -20 -75 -17 -77 2 -2 81 -25 174 -51 94 -26 193 -54 220 -62 99
-29 260 -73 271 -73 11 0 71 196 63 205 -3 2 -70 22 -150 44 -249 69 -264 75
-261 97 3 17 94 341 199 707 20 70 34 128 32 130 -6 5 -232 67 -242 67 -4 0
-9 -6 -11 -12z"/>
<path d="M6885 17029 c-33 -11 -65 -21 -71 -23 -13 -5 -4 -40 131 -511 34
-119 36 -119 -81 -3 -172 169 -348 340 -387 376 l-35 34 -131 -37 c-72 -21
-131 -42 -131 -47 0 -6 6 -33 14 -61 92 -329 128 -459 140 -497 8 -25 43 -144
77 -265 34 -121 65 -224 69 -229 5 -5 41 1 82 14 40 12 80 23 88 25 19 3 18
33 -3 105 -9 30 -52 179 -95 330 -44 151 -79 276 -78 277 2 3 137 -127 413
-398 105 -104 196 -189 201 -189 5 0 45 11 88 25 43 14 87 25 96 25 28 0 26
18 -35 225 -19 66 -56 197 -82 290 -26 94 -60 213 -75 265 -16 52 -34 115 -40
140 -36 142 -40 150 -68 149 -15 -1 -54 -10 -87 -20z"/>
<path d="M5710 16634 c-191 -85 -194 -87 -270 -122 -135 -62 -216 -99 -247
-111 -18 -8 -33 -19 -33 -26 0 -7 16 -48 36 -91 38 -84 63 -139 124 -274 21
-47 60 -134 88 -195 146 -323 192 -426 192 -435 0 -15 3 -14 159 56 80 36 166
75 191 86 25 11 68 31 95 43 28 13 102 47 165 75 63 29 116 54 118 55 2 2 -10
33 -27 69 -17 36 -31 69 -31 73 0 4 -9 19 -19 32 l-18 24 -44 -21 c-128 -60
-221 -102 -225 -102 -3 0 -48 -20 -101 -45 -52 -25 -97 -45 -99 -45 -2 0 -18
30 -35 68 -17 37 -40 85 -50 106 -11 22 -19 41 -19 43 0 1 21 12 48 24 26 12
79 36 117 53 39 18 100 45 137 62 37 16 68 35 68 41 0 7 -18 51 -40 98 -34 73
-43 84 -58 77 -63 -33 -307 -140 -335 -147 -22 -6 -27 -1 -52 52 -15 32 -35
75 -46 96 -19 37 -18 57 1 57 5 0 42 15 82 34 79 36 113 52 258 116 52 23 100
47 107 54 8 8 1 33 -29 99 -23 48 -46 87 -52 87 -6 0 -76 -30 -156 -66z"/>
<path d="M12199 16487 c-30 -61 -120 -238 -199 -392 -231 -449 -244 -475 -239
-478 2 -2 95 -49 205 -105 256 -129 338 -150 476 -121 97 21 177 67 261 152
65 64 86 94 123 172 57 121 68 176 61 300 -5 94 -12 123 -53 212 -39 86 -127
153 -349 268 -93 48 -174 92 -179 96 -6 5 -19 9 -30 9 -17 0 -33 -25 -77 -113z
m364 -276 c145 -134 54 -457 -162 -575 -72 -38 -148 -35 -241 13 -79 40 -86
46 -73 63 5 7 72 135 148 283 76 149 145 280 153 292 l14 23 67 -36 c36 -20
79 -48 94 -63z"/>
<path d="M4600 16056 c-165 -48 -303 -174 -344 -315 -20 -68 -21 -199 -1 -273
32 -124 132 -295 221 -377 62 -58 145 -109 213 -133 45 -16 73 -19 144 -15 76
4 98 10 160 41 80 40 105 60 158 126 35 43 69 124 69 162 0 21 13 23 32 5 7
-6 28 -24 46 -40 l33 -27 37 27 c20 15 41 30 45 34 10 8 -11 44 -255 422 -28
42 -52 77 -54 77 -5 0 -129 -76 -163 -100 -14 -10 -70 -46 -123 -80 l-96 -62
34 -52 c19 -28 42 -66 51 -83 9 -18 21 -33 27 -33 6 0 46 23 88 50 43 28 81
50 86 50 17 0 37 -64 36 -112 -2 -130 -158 -213 -283 -149 -127 66 -269 288
-279 437 -4 63 -2 75 21 111 65 104 188 120 284 38 23 -19 45 -35 51 -35 5 0
20 10 33 23 13 13 53 47 88 77 l63 55 -52 47 c-106 95 -256 137 -370 104z"/>
<path d="M13300 15943 c-109 -158 -230 -328 -245 -346 -8 -9 -15 -20 -15 -23
0 -3 -17 -28 -37 -54 -21 -27 -74 -99 -118 -162 -43 -62 -99 -139 -122 -170
-24 -31 -43 -60 -43 -65 0 -4 12 -16 28 -25 45 -27 135 -90 206 -143 23 -17
86 -62 141 -100 55 -38 105 -73 110 -78 29 -23 150 -107 157 -107 4 0 14 10
23 23 9 12 37 51 62 86 51 69 51 61 -7 101 -12 8 -44 31 -71 50 -26 19 -71 51
-99 70 -28 19 -57 40 -63 45 -7 6 -34 26 -62 45 -93 62 -91 49 -16 155 36 52
70 95 75 95 5 0 38 -21 75 -47 36 -27 84 -60 106 -75 22 -15 67 -46 99 -69 46
-32 61 -38 67 -28 4 8 30 45 58 83 28 38 48 72 46 76 -2 4 -30 25 -62 47 -32
22 -96 66 -143 99 -127 88 -131 92 -110 117 6 7 34 44 61 82 28 39 52 72 54
74 3 2 31 -16 64 -40 32 -24 69 -51 81 -59 12 -8 44 -31 71 -50 26 -19 71 -51
99 -70 29 -19 65 -46 82 -59 l31 -25 18 25 c53 68 99 137 99 146 0 4 -17 19
-37 33 -21 14 -45 30 -53 37 -19 15 -126 92 -227 163 -43 30 -82 58 -88 63 -5
4 -39 28 -75 54 -36 25 -86 61 -112 80 l-46 34 -62 -88z"/>
<path d="M3355 15139 c-36 -34 -65 -64 -65 -68 0 -7 222 -243 358 -380 40 -41
71 -76 68 -78 -3 -4 -161 41 -436 124 -128 39 -251 73 -263 73 -10 0 -197
-180 -197 -190 0 -4 23 -32 51 -61 29 -30 126 -133 218 -229 91 -96 211 -222
267 -280 56 -58 127 -133 159 -168 32 -34 61 -61 65 -60 17 7 140 124 140 133
0 5 -50 62 -111 125 -280 292 -391 410 -384 410 4 0 59 -16 123 -36 163 -49
287 -86 432 -129 69 -20 153 -46 188 -57 58 -18 65 -19 81 -4 86 78 142 136
140 145 -4 9 -178 193 -444 471 -56 58 -144 149 -196 203 -52 54 -95 103 -97
108 -8 20 -34 6 -97 -52z"/>
<path d="M14463 14895 c-123 -34 -269 -135 -353 -244 -14 -18 -33 -42 -43 -54
-29 -34 -76 -139 -88 -198 -18 -82 -6 -206 27 -276 79 -169 234 -286 396 -299
63 -5 84 -3 153 20 84 29 145 63 145 83 0 10 -68 97 -127 162 l-22 24 -59 -26
c-68 -31 -116 -34 -169 -12 -74 31 -113 92 -113 176 0 64 40 134 132 230 196
204 354 244 453 115 51 -67 39 -165 -30 -238 -32 -34 -31 -42 3 -68 15 -12 58
-51 96 -87 l69 -67 28 35 c24 29 49 74 101 185 6 12 8 61 6 110 -3 75 -8 100
-35 156 -43 92 -153 203 -247 249 -63 31 -79 34 -170 36 -66 2 -119 -2 -153
-12z"/>
<path d="M2111 14228 c-32 -237 -34 -218 17 -233 52 -16 50 -20 92 141 17 65
35 133 39 149 4 17 11 40 15 51 6 19 0 23 -58 38 -36 9 -69 16 -74 16 -5 0
-18 -73 -31 -162z"/>
<path d="M2527 14169 c-134 -32 -281 -185 -324 -339 -31 -112 6 -270 91 -392
56 -79 197 -199 290 -245 122 -60 309 -82 406 -46 106 39 197 125 265 253 28
52 30 62 30 170 0 108 -2 119 -32 182 -59 125 -140 220 -256 300 -150 102
-335 149 -470 117z m151 -247 c126 -48 330 -219 367 -308 58 -139 -51 -275
-194 -243 -150 34 -377 221 -415 344 -21 64 -15 104 23 157 48 67 126 85 219
50z"/>
<path d="M15265 14040 c-66 -10 -139 -33 -200 -63 -98 -48 -220 -151 -274
-231 -8 -12 -18 -23 -22 -26 -3 -3 -24 -41 -45 -85 -37 -77 -39 -84 -39 -185
0 -102 1 -109 37 -181 48 -97 134 -186 220 -228 126 -62 282 -50 452 33 189
93 325 246 381 430 41 134 -19 312 -143 428 -60 56 -111 83 -194 103 -68 16
-95 17 -173 5z m202 -257 c21 -9 48 -36 65 -62 26 -40 29 -53 25 -97 -6 -63
-36 -112 -109 -179 -97 -89 -176 -141 -270 -179 -80 -31 -131 -33 -177 -5 -64
39 -91 85 -91 153 0 107 126 244 313 339 34 18 71 35 82 38 40 13 127 9 162
-8z"/>
<path d="M1781 13223 c-50 -86 -59 -109 -49 -119 10 -9 216 -130 298 -175 8
-5 92 -52 185 -106 94 -53 199 -113 235 -133 36 -20 100 -58 143 -84 43 -25
82 -44 87 -41 11 7 120 199 120 211 0 6 -57 43 -127 84 -71 40 -198 114 -283
163 -85 49 -169 98 -186 107 -16 10 -91 53 -165 96 -150 87 -181 104 -190 104
-4 0 -34 -48 -68 -107z"/>
<path d="M15995 13106 c-77 -40 -297 -152 -490 -250 -192 -98 -351 -180 -353
-181 -7 -6 95 -185 106 -185 8 0 118 54 245 119 128 65 298 153 380 195 81 41
147 72 147 69 0 -4 -26 -32 -57 -61 -32 -30 -148 -141 -258 -246 -110 -105
-230 -220 -267 -255 -38 -35 -68 -69 -68 -74 0 -24 73 -157 86 -157 8 0 47 6
87 14 40 8 167 31 282 51 247 42 353 61 454 81 41 8 76 13 78 10 2 -2 -76 -44
-174 -94 -400 -204 -561 -288 -584 -303 l-24 -17 54 -103 c29 -57 57 -108 61
-112 4 -5 72 25 151 66 133 69 447 230 714 365 61 31 113 60 116 64 5 7 -122
266 -167 342 -12 21 -8 21 -582 -81 -46 -8 -86 -12 -90 -9 -3 3 8 18 24 32 16
15 103 97 194 183 91 87 187 178 215 203 l50 46 -89 174 c-48 95 -91 176 -94
180 -4 4 -70 -26 -147 -66z"/>
<path d="M1667 12750 c-50 -9 -144 -57 -182 -93 -47 -45 -105 -142 -131 -219
-30 -92 -35 -215 -10 -284 64 -183 197 -301 436 -389 64 -24 91 -28 190 -29
98 -1 124 2 174 22 199 77 328 282 314 498 -8 119 -68 222 -181 308 -20 15
-41 25 -46 22 -6 -4 -34 -53 -63 -111 l-52 -104 43 -38 c100 -87 106 -217 12
-296 -55 -46 -121 -57 -206 -33 -175 50 -342 149 -390 230 -59 100 -4 242 102
262 32 6 125 -6 166 -22 7 -2 19 14 29 38 50 130 76 203 72 209 -14 23 -202
43 -277 29z"/>
<path d="M8620 11749 c-158 -16 -246 -28 -270 -37 -14 -5 -27 -10 -30 -10 -80
-4 -469 -129 -478 -153 -2 -5 -8 -9 -14 -9 -12 0 -141 -61 -148 -71 -3 -3 -19
-13 -37 -22 -32 -17 -194 -125 -203 -136 -3 -4 -25 -22 -50 -41 -63 -48 -292
-278 -315 -317 -11 -18 -26 -33 -35 -33 -8 0 -52 37 -97 83 -86 87 -178 171
-216 196 -13 9 -39 31 -58 48 -19 18 -38 33 -43 33 -4 0 -29 15 -55 33 -152
107 -422 223 -596 257 -33 6 -73 15 -90 21 -58 17 -364 64 -445 67 -8 1 -109
6 -225 12 -127 6 -559 9 -1090 8 l-880 -3 0 -2740 0 -2740 1080 0 c1063 1
1082 1 1230 23 254 38 427 82 650 165 63 24 290 138 293 148 2 5 8 9 14 9 21
0 258 166 258 181 0 4 -4 11 -10 14 -18 11 -158 237 -191 307 -11 24 -24 50
-29 58 -17 26 -106 223 -125 275 -9 28 -23 64 -30 80 -7 17 -16 46 -20 65 -4
19 -11 40 -15 45 -13 17 -99 349 -101 388 -2 65 -15 57 -67 -42 -202 -386
-469 -595 -852 -667 -64 -12 -178 -17 -457 -21 l-373 -6 0 1725 c0 949 2 1727
4 1729 2 2 179 1 393 -2 350 -6 398 -8 488 -28 55 -12 104 -26 110 -30 5 -4
30 -13 55 -20 129 -37 310 -155 409 -265 14 -16 32 -35 39 -42 85 -88 221
-331 291 -519 18 -49 37 -99 41 -110 20 -47 60 -239 74 -353 9 -68 16 -185 16
-260 1 -324 32 -681 80 -914 29 -143 59 -267 69 -286 5 -9 21 -55 36 -102 43
-139 119 -310 209 -475 16 -29 45 -74 77 -122 16 -23 29 -45 29 -50 0 -4 12
-22 28 -38 35 -39 92 -112 92 -119 0 -2 20 -25 44 -50 24 -25 59 -63 77 -84
19 -22 75 -74 124 -117 50 -43 92 -81 95 -84 21 -25 272 -191 289 -191 5 0 11
-3 13 -8 5 -11 182 -97 263 -128 93 -35 199 -69 258 -83 26 -6 66 -15 90 -21
193 -45 290 -55 577 -55 298 0 351 5 590 56 104 22 304 87 390 126 121 55 257
127 281 149 8 8 19 14 22 14 26 0 237 170 343 276 141 142 248 284 323 432 21
40 51 57 51 28 0 -8 6 -21 13 -28 7 -7 34 -44 60 -83 26 -38 76 -104 112 -145
35 -41 84 -98 107 -126 24 -28 59 -63 78 -78 19 -15 55 -46 80 -70 51 -48 244
-194 275 -207 24 -11 58 -32 65 -40 3 -3 65 -36 138 -72 207 -102 398 -162
673 -209 118 -20 168 -23 419 -23 319 0 389 8 675 79 81 20 265 86 347 125 36
17 70 31 74 31 4 0 15 6 23 14 9 7 45 28 81 47 36 19 67 37 70 40 3 3 34 25
70 49 36 24 67 46 70 50 3 3 25 21 50 40 69 52 226 208 283 280 28 36 54 67
58 70 8 7 84 122 92 140 4 8 16 29 26 45 55 86 149 300 194 441 45 143 117
464 117 522 0 27 -9 28 -275 42 -195 10 -284 15 -665 40 -80 5 -179 11 -220
12 l-74 3 -9 -40 c-29 -140 -77 -307 -114 -395 -33 -79 -129 -249 -153 -270
-3 -3 -23 -27 -44 -53 -47 -58 -181 -160 -251 -192 -251 -114 -618 -110 -856
10 -244 124 -428 372 -493 666 -7 31 -16 60 -19 66 -8 12 -32 163 -52 328 -33
259 -37 811 -10 1100 18 188 75 496 105 570 4 11 20 54 35 95 41 111 96 215
160 305 113 159 223 238 435 313 8 2 22 6 30 8 252 50 534 10 712 -103 60 -37
180 -160 222 -226 41 -63 86 -158 109 -228 44 -132 87 -386 87 -518 l0 -64
113 6 c61 4 362 22 667 42 305 19 556 35 559 35 10 0 -42 310 -74 438 -8 34
-22 90 -30 125 -48 197 -171 484 -285 668 -149 241 -323 415 -586 586 -49 32
-227 119 -308 150 -170 64 -393 114 -624 139 -158 17 -551 14 -682 -5 -186
-27 -384 -76 -535 -130 -179 -66 -421 -204 -580 -332 -138 -112 -325 -308
-408 -429 -17 -25 -33 -47 -36 -50 -3 -3 -12 -14 -19 -25 -36 -57 -52 -81 -60
-91 -37 -42 -189 -342 -217 -430 -9 -27 -22 -62 -29 -79 -8 -16 -26 -70 -41
-120 -15 -49 -31 -99 -36 -110 -12 -27 -53 -218 -74 -340 -10 -55 -19 -106
-21 -112 -3 -10 -187 -13 -879 -13 l-875 0 0 -145 0 -145 990 0 990 0 30 -61
c17 -33 30 -65 28 -70 -2 -6 -389 -9 -1019 -9 -922 0 -1017 -1 -1023 -16 -8
-20 -8 -352 0 -382 l6 -22 1127 1 1126 1 32 -59 c17 -32 32 -64 32 -70 1 -10
-241 -13 -1161 -15 l-1163 -3 -3 -95 c-2 -52 0 -137 3 -187 l7 -93 559 0 c528
0 559 -1 559 -18 0 -9 -11 -60 -24 -112 -80 -316 -199 -521 -386 -664 -73 -57
-173 -109 -230 -121 -8 -2 -42 -10 -76 -19 -91 -24 -244 -31 -364 -17 -96 12
-268 55 -280 72 -3 3 -16 10 -30 14 -14 4 -54 27 -90 50 -224 148 -362 376
-430 710 -23 109 -23 110 -44 270 -37 273 -45 808 -16 1115 12 135 55 401 75
468 82 279 124 378 222 513 73 101 136 162 232 224 81 51 111 64 226 96 66 19
106 23 230 23 236 1 393 -44 540 -156 70 -53 159 -154 192 -217 10 -18 28 -52
40 -75 12 -22 39 -94 60 -160 l38 -118 70 6 c39 4 165 15 282 25 212 18 243
26 243 59 0 18 83 269 105 317 7 17 25 59 40 95 39 93 126 264 136 268 5 2 9
8 9 13 0 5 18 39 40 75 22 36 40 68 40 71 0 3 -11 19 -25 37 -14 17 -29 36
-33 41 -121 164 -269 304 -445 424 -126 85 -427 228 -427 203 0 -4 -4 -2 -8 4
-7 10 -96 37 -252 74 -210 51 -634 74 -880 49z"/>
<path d="M1215 11666 c-175 -55 -281 -211 -293 -429 -4 -83 -1 -107 18 -164
26 -78 46 -108 115 -179 165 -169 487 -249 693 -172 128 48 222 141 274 273
28 71 32 91 32 185 1 125 -20 189 -88 272 -38 47 -180 147 -192 135 -2 -2 -22
-55 -44 -117 l-41 -114 23 -18 c13 -10 26 -18 31 -18 4 0 20 -12 36 -26 111
-99 64 -290 -79 -324 -77 -18 -219 6 -358 61 -152 61 -222 139 -206 233 19
118 83 164 216 153 37 -3 68 -5 68 -3 0 2 11 54 25 116 36 164 44 150 -82 149
-60 0 -126 -6 -148 -13z"/>
<path d="M16790 11670 c-23 -8 -192 -56 -455 -130 -267 -75 -439 -124 -533
-152 -40 -12 -40 -10 6 -168 49 -172 122 -430 144 -510 12 -41 24 -79 29 -84
4 -4 53 4 109 20 79 22 100 32 97 44 -3 8 -15 51 -27 95 -20 72 -30 109 -60
210 -26 91 -51 188 -48 190 7 6 201 55 219 55 10 0 19 -6 19 -12 0 -7 15 -67
35 -133 19 -66 42 -148 52 -181 l18 -62 89 23 c49 13 93 28 99 34 8 8 6 26 -6
64 -9 28 -32 108 -51 177 -19 69 -38 132 -41 142 -5 12 1 18 27 23 18 4 59 16
92 26 95 31 100 29 118 -43 27 -110 119 -423 126 -429 4 -4 49 5 100 20 75 21
92 29 92 45 0 17 -39 158 -151 551 -56 195 -54 189 -65 191 -5 1 -20 -2 -34
-6z"/>
<path d="M776 10652 c-3 -4 -21 -100 -41 -213 -20 -112 -45 -251 -55 -309 -29
-155 -42 -241 -38 -245 1 -1 120 -23 263 -49 143 -25 296 -53 340 -61 80 -15
392 -71 451 -81 31 -5 32 -3 43 43 10 44 44 236 61 343 4 25 12 72 19 105 26
132 50 279 47 282 -3 3 -167 34 -196 37 -17 1 -22 -20 -74 -317 -18 -103 -35
-190 -38 -193 -6 -5 -96 8 -181 27 l-49 11 4 47 c3 25 17 115 32 199 16 84 26
155 23 158 -9 9 -186 38 -193 32 -7 -8 -27 -100 -55 -265 -18 -105 -26 -133
-38 -132 -9 0 -59 8 -111 17 -84 15 -95 20 -93 37 1 11 11 74 23 140 50 282
62 356 58 361 -5 4 -164 33 -185 34 -6 0 -14 -4 -17 -8z"/>
<path d="M16955 10631 c-49 -10 -135 -26 -190 -35 -55 -10 -156 -28 -225 -41
-69 -13 -159 -28 -200 -35 -41 -6 -104 -18 -140 -25 -36 -8 -89 -17 -118 -21
-33 -4 -56 -12 -59 -21 -3 -8 3 -67 14 -131 17 -103 22 -117 39 -115 10 1 106
18 212 38 106 19 194 35 196 35 4 0 23 -93 30 -145 6 -38 4 -41 -37 -66 -240
-146 -334 -204 -344 -213 -9 -8 -6 -42 12 -141 13 -71 24 -131 25 -132 1 -11
33 6 122 63 57 37 127 82 156 100 28 19 77 50 108 70 l55 37 47 -46 c74 -71
122 -92 217 -92 71 0 88 4 147 33 81 39 123 80 155 150 33 69 34 181 4 337
-23 123 -71 396 -71 408 0 11 -57 7 -155 -12z m15 -348 c28 -173 29 -195 7
-235 -40 -73 -144 -92 -208 -38 -33 26 -39 39 -57 122 -12 51 -24 114 -28 141
-6 45 -5 47 17 47 13 1 65 9 114 19 148 31 140 34 155 -56z"/>
<path d="M880 9501 c-88 -13 -164 -61 -217 -136 -45 -65 -54 -124 -65 -438 -6
-164 -8 -300 -6 -302 3 -4 1102 -35 1104 -31 1 0 4 58 8 127 l6 126 -82 6
c-46 4 -145 7 -220 7 l-138 0 0 83 c0 51 5 90 13 100 12 16 67 39 237 97 47
16 110 38 140 50 30 11 56 20 57 20 2 0 3 63 3 140 0 89 -4 140 -10 140 -6 0
-36 -11 -68 -24 -104 -43 -398 -156 -408 -156 -5 0 -16 15 -23 33 -51 114
-187 179 -331 158z m113 -275 c18 -7 44 -27 60 -45 27 -30 27 -32 27 -171 l0
-140 -79 0 c-43 0 -106 3 -141 7 l-62 6 4 133 c4 149 13 173 79 206 41 22 69
23 112 4z"/>
<path d="M16635 9459 c-87 -9 -208 -47 -264 -84 -93 -60 -167 -156 -196 -252
-52 -172 -9 -368 105 -483 58 -58 156 -107 234 -116 l56 -7 0 59 c0 33 3 89 7
127 6 64 5 67 -15 67 -23 0 -117 41 -143 62 -65 53 -66 200 0 268 56 60 244
91 420 71 172 -19 241 -75 241 -195 0 -32 -7 -70 -15 -87 -20 -38 -82 -77
-137 -85 -57 -9 -77 -20 -72 -41 2 -10 8 -67 13 -126 5 -60 12 -111 14 -113 8
-8 100 17 172 47 183 76 275 271 232 495 -21 109 -50 168 -122 239 -78 78
-180 129 -300 150 -95 16 -110 17 -230 4z"/>
<path d="M5245 8650 c-183 -44 -311 -188 -356 -401 -13 -59 -7 -194 11 -249
31 -93 78 -170 148 -238 51 -50 113 -83 200 -107 120 -34 265 11 370 113 108
105 150 195 159 343 15 236 -103 443 -298 520 -59 23 -177 32 -234 19z"/>
<path d="M12835 8651 c-65 -12 -162 -70 -218 -131 -54 -59 -94 -129 -123 -215
-22 -62 -24 -222 -6 -285 16 -53 63 -159 77 -174 6 -6 22 -27 36 -46 15 -20
46 -49 70 -65 24 -17 46 -33 49 -37 8 -9 122 -46 168 -54 51 -8 167 18 229 52
102 57 191 171 238 309 26 77 25 213 -3 301 -66 207 -217 339 -399 349 -43 2
-96 0 -118 -4z"/>
<path d="M1590 8359 c-90 -8 -200 -16 -725 -55 -121 -8 -224 -19 -228 -23 -4
-4 -5 -62 -1 -129 l7 -122 36 0 c20 0 151 9 291 20 140 11 318 25 395 30 77 6
190 15 250 20 61 5 117 10 125 10 13 0 14 16 5 127 -12 149 4 136 -155 122z"/>
<path d="M16134 8228 c-6 -68 -8 -126 -5 -130 3 -3 78 -11 166 -17 88 -6 333
-24 544 -41 212 -16 387 -28 389 -25 7 7 25 245 20 251 -3 2 -94 11 -204 19
-322 24 -600 45 -733 55 -68 6 -134 10 -146 10 -21 0 -22 -6 -31 -122z"/>
<path d="M1211 7809 c-215 -48 -370 -183 -425 -369 -25 -85 -18 -188 28 -382
8 -35 24 -105 36 -156 12 -51 26 -95 31 -98 5 -3 35 2 66 10 67 17 342 82 518
122 266 60 475 111 481 117 15 14 -87 429 -123 506 -34 73 -132 170 -208 209
-73 36 -184 62 -262 61 -32 0 -96 -9 -142 -20z m321 -277 c26 -11 60 -35 77
-53 37 -38 70 -124 74 -187 2 -52 19 -44 -158 -81 -55 -12 -184 -42 -287 -66
-103 -25 -195 -45 -206 -45 -16 0 -22 13 -36 83 -20 104 -20 122 4 177 36 80
159 166 270 190 72 15 208 5 262 -18z"/>
<path d="M16402 7809 c-146 -17 -287 -100 -345 -203 -52 -94 -62 -135 -62
-256 0 -106 2 -119 28 -171 89 -178 300 -303 547 -325 93 -8 198 8 295 45 167
63 274 244 263 446 -13 229 -205 404 -507 460 -90 16 -109 17 -219 4z m176
-275 c152 -30 254 -80 302 -146 24 -33 30 -51 30 -95 0 -67 -19 -105 -72 -143
-38 -28 -47 -30 -134 -30 -158 0 -343 50 -429 116 -35 26 -75 96 -75 130 0 37
21 94 46 123 49 59 178 76 332 45z"/>
<path d="M1550 6523 c-27 -5 -133 -54 -164 -75 -46 -31 -101 -98 -132 -164
-48 -98 -56 -206 -25 -311 54 -180 220 -303 411 -303 118 0 219 42 302 125 59
59 88 110 113 194 38 136 -5 306 -103 406 -48 49 -60 58 -142 97 -54 25 -79
31 -150 34 -47 1 -96 0 -110 -3z"/>
<path d="M16100 6473 c-175 -31 -321 -175 -351 -347 -14 -84 0 -192 36 -268
27 -57 116 -155 162 -178 15 -8 34 -19 42 -24 46 -35 207 -46 299 -22 113 30
216 117 279 234 37 69 41 246 7 332 -33 85 -117 186 -176 213 -16 6 -28 15
-28 18 0 6 -43 20 -115 39 -40 10 -107 11 -155 3z"/>
<path d="M2312 5480 c-99 -21 -216 -116 -240 -198 -22 -73 -8 -220 33 -332 27
-76 45 -178 36 -202 -30 -78 -125 -84 -190 -13 -44 49 -81 131 -81 182 0 45
26 123 41 123 27 0 0 45 -71 120 l-79 85 -32 -35 c-58 -64 -82 -133 -83 -235
-1 -112 19 -180 87 -290 84 -139 181 -214 305 -236 112 -21 234 20 308 105 89
102 98 203 39 406 -57 193 -59 203 -40 244 13 26 26 38 52 45 43 12 77 -3 118
-51 60 -71 74 -155 36 -229 l-21 -44 27 -24 c16 -13 52 -45 81 -70 29 -25 57
-46 64 -46 6 0 29 32 50 70 35 64 38 76 38 150 0 93 -15 149 -66 245 -88 169
-254 261 -412 230z"/>
<path d="M15314 5297 c-28 -8 -71 -25 -95 -39 -45 -27 -149 -129 -149 -147 0
-5 -6 -16 -13 -23 -7 -7 -24 -40 -37 -73 -35 -85 -35 -234 0 -315 48 -111 116
-194 224 -272 146 -106 291 -154 444 -146 170 9 282 90 373 269 40 79 50 189
26 282 -64 242 -359 463 -632 473 -53 2 -111 -2 -141 -9z m180 -252 c37 -14
79 -33 94 -42 90 -55 134 -87 181 -129 101 -91 130 -169 91 -249 -12 -25 -38
-58 -58 -73 -31 -24 -44 -27 -106 -26 -57 0 -83 6 -131 29 -94 45 -195 112
-253 168 -108 104 -125 192 -55 283 51 68 128 80 237 39z"/>
<path d="M2665 4455 c-242 -91 -480 -180 -529 -198 -48 -17 -90 -37 -93 -44
-3 -7 23 -47 58 -90 34 -43 64 -80 66 -82 2 -2 50 14 108 37 59 23 110 42 115
42 4 0 44 -45 87 -101 43 -55 90 -115 105 -132 31 -35 34 -52 16 -72 -28 -31
-38 -44 -38 -51 0 -4 -18 -31 -41 -61 -44 -59 -44 -61 7 -119 11 -12 30 -36
44 -54 14 -18 35 -44 47 -59 13 -14 23 -30 23 -34 0 -5 4 -6 9 -2 12 7 220
305 444 636 57 85 129 190 160 233 56 78 57 80 40 105 -18 29 -92 120 -109
136 -6 5 -21 25 -33 43 -12 17 -28 32 -34 32 -7 0 -210 -75 -452 -165z m295
-119 c0 -3 -33 -50 -72 -106 -73 -102 -85 -119 -124 -178 l-21 -32 -20 23
c-58 63 -122 152 -115 159 10 10 323 137 340 138 6 0 12 -2 12 -4z"/>
<path d="M14720 4494 c-57 -28 -179 -144 -275 -259 -27 -33 -81 -96 -120 -140
-38 -44 -76 -88 -84 -98 -16 -20 -26 -9 99 -117 41 -36 77 -67 80 -70 3 -3 39
-34 80 -69 41 -36 82 -71 90 -80 8 -9 36 -33 62 -54 26 -21 53 -43 60 -50 7
-7 47 -41 88 -77 41 -36 91 -79 110 -96 128 -115 163 -138 172 -115 2 5 21 29
43 53 22 24 56 62 74 86 l34 43 -39 32 c-21 18 -52 45 -69 61 -16 15 -50 45
-74 65 -25 20 -54 45 -65 56 -12 11 -34 30 -49 42 -16 12 -27 27 -25 32 1 5
29 38 60 74 l58 65 147 -55 c155 -57 246 -90 275 -100 19 -6 20 -5 98 87 30
36 65 76 78 90 12 14 22 28 22 31 0 4 -109 43 -242 86 l-243 80 4 86 c3 78 1
93 -24 142 -32 66 -86 122 -151 160 -40 22 -65 28 -134 32 -78 4 -90 2 -140
-23z m148 -246 c38 -19 64 -60 69 -111 6 -49 -17 -101 -69 -157 -13 -14 -42
-46 -64 -71 l-42 -46 -39 31 c-99 78 -172 150 -165 162 4 7 23 30 42 51 19 21
55 61 80 88 65 73 117 87 188 53z"/>
<path d="M3458 3993 c-117 -120 -175 -181 -378 -393 -264 -275 -300 -313 -300
-320 0 -10 127 -130 138 -130 10 0 85 75 395 399 59 62 110 112 112 110 2 -2
-42 -186 -97 -407 l-101 -404 74 -74 c40 -41 79 -74 85 -74 11 0 38 26 184
180 35 36 151 157 260 270 279 289 320 334 320 345 0 6 -10 19 -22 29 -13 11
-45 39 -72 64 -27 26 -51 40 -55 35 -3 -6 -96 -104 -206 -218 -110 -114 -203
-212 -207 -218 -23 -37 -8 34 67 336 47 185 85 345 85 355 0 10 -43 58 -96
108 -53 49 -97 90 -98 92 -2 1 -41 -37 -88 -85z"/>
<path d="M13960 3722 c-90 -86 -216 -207 -279 -269 l-116 -111 65 -69 c59 -62
371 -388 599 -625 52 -54 99 -98 105 -98 6 0 50 37 97 83 47 45 172 165 278
266 105 102 190 188 189 192 -4 11 -137 149 -144 149 -7 0 -346 -320 -357
-337 -4 -7 -14 -13 -20 -13 -13 0 -167 150 -167 163 0 4 66 72 146 150 l146
143 -71 74 -70 75 -58 -55 c-32 -31 -100 -96 -152 -145 l-93 -90 -74 79 c-41
44 -74 83 -74 87 0 8 76 82 305 301 l70 67 -70 71 c-38 38 -74 70 -80 70 -5 0
-84 -71 -175 -158z"/>
<path d="M4152 3379 c-26 -33 -53 -71 -61 -84 -17 -27 -19 -25 116 -126 l81
-62 -36 -51 c-20 -28 -41 -56 -47 -62 -5 -6 -19 -23 -30 -39 -11 -15 -42 -56
-70 -90 -27 -35 -75 -95 -105 -135 -30 -40 -60 -77 -66 -84 -5 -6 -30 -38 -54
-71 -24 -33 -63 -84 -87 -113 -24 -30 -43 -57 -43 -62 0 -4 21 -24 48 -43 26
-20 52 -40 57 -44 6 -5 29 -23 53 -42 24 -19 47 -30 51 -25 5 5 59 77 122 159
62 83 116 152 119 155 3 3 28 34 55 70 71 91 67 87 141 180 37 47 73 95 81
108 19 27 21 27 58 -3 17 -13 64 -50 105 -83 l75 -58 63 82 c34 45 62 86 62
92 0 5 -26 29 -57 53 -32 24 -60 46 -63 49 -3 3 -21 17 -40 30 -19 13 -40 29
-46 35 -6 5 -26 21 -44 35 -18 14 -56 43 -84 66 -55 43 -196 152 -255 196 -20
15 -39 27 -44 28 -4 0 -28 -27 -55 -61z"/>
<path d="M13495 3297 c-46 -35 -191 -140 -217 -159 -12 -9 -88 -63 -168 -120
-80 -57 -165 -118 -188 -137 l-43 -34 20 -21 c12 -12 21 -25 21 -29 0 -3 19
-31 41 -62 39 -51 62 -67 71 -47 2 4 25 23 53 42 27 19 69 50 93 68 24 17 47
32 51 32 5 0 32 -35 61 -77 29 -43 63 -90 74 -104 12 -14 28 -36 36 -49 8 -12
20 -28 26 -34 11 -11 35 -46 156 -221 72 -104 160 -220 169 -223 12 -5 209
133 209 147 0 6 -24 39 -199 281 -108 149 -110 151 -181 252 -35 51 -70 99
-76 105 -7 7 -22 29 -35 49 -18 30 -20 38 -8 44 8 5 37 26 66 47 29 21 70 51
93 66 22 16 40 32 40 36 0 9 -59 101 -77 119 -7 8 -18 22 -23 33 -13 24 -28
23 -65 -4z"/>
<path d="M4845 2777 c-44 -67 -82 -126 -84 -132 -2 -5 -25 -41 -51 -80 -26
-38 -72 -108 -102 -155 -30 -47 -77 -119 -104 -160 -27 -41 -51 -80 -54 -85
-3 -6 -31 -50 -63 -99 -32 -48 -57 -89 -55 -91 2 -2 41 -29 88 -59 47 -31 90
-60 97 -66 7 -5 16 -10 22 -10 5 0 37 44 72 98 34 53 66 99 71 100 4 2 8 8 8
13 0 6 37 67 83 137 46 70 103 159 128 197 24 39 47 72 51 73 4 2 8 7 8 12 0
5 41 69 90 143 50 75 90 141 90 149 0 7 -27 29 -60 48 -33 19 -60 38 -60 41 0
7 -74 49 -86 49 -5 0 -45 -55 -89 -123z"/>
<path d="M12605 2689 c-75 -18 -197 -88 -254 -146 -78 -81 -106 -147 -106
-253 0 -72 4 -94 28 -143 35 -74 109 -149 163 -165 82 -24 231 -8 359 39 33
12 90 24 126 26 63 5 67 4 92 -23 60 -65 17 -157 -103 -217 -64 -32 -166 -31
-210 1 -17 13 -37 22 -45 20 -8 -2 -51 -39 -95 -82 l-80 -79 28 -24 c48 -42
139 -83 201 -89 122 -13 264 34 390 128 73 55 106 92 144 163 30 56 32 66 32
160 0 84 -4 107 -23 147 -30 59 -95 125 -149 149 -99 46 -180 43 -358 -13
-145 -45 -165 -48 -208 -37 -49 13 -71 47 -64 97 6 33 27 59 82 100 52 39 148
44 203 12 l37 -22 73 78 c39 43 72 84 72 91 0 15 -46 48 -105 73 -51 22 -156
26 -230 9z"/>
<path d="M5433 2481 c-169 -169 -728 -743 -731 -751 -3 -8 135 -82 175 -94 19
-6 35 6 99 73 42 45 81 81 87 81 6 0 80 -35 165 -77 l153 -78 -6 -30 c-4 -16
-10 -55 -15 -85 -5 -30 -12 -71 -15 -90 l-6 -35 120 -59 c67 -32 123 -57 125
-55 5 5 32 152 52 284 8 55 17 106 20 114 2 8 9 46 14 85 6 39 17 107 25 151
16 90 42 240 56 330 5 33 13 85 18 115 5 30 6 58 2 63 -4 4 -64 36 -134 71
l-127 64 -77 -77z m53 -268 c-3 -10 -19 -94 -36 -187 -16 -93 -32 -171 -34
-173 -2 -3 -50 19 -106 47 l-102 51 63 67 c212 223 228 237 215 195z"/>
<path d="M12070 2391 c-15 -9 -263 -106 -510 -201 -69 -26 -137 -52 -152 -58
l-27 -11 71 -183 c73 -191 80 -210 172 -453 52 -136 69 -179 120 -298 9 -21
16 -43 16 -50 0 -7 6 -21 13 -31 16 -21 4 -25 270 80 206 81 302 118 389 150
71 26 78 31 78 56 0 15 -3 29 -8 31 -4 3 -18 37 -32 76 -13 39 -30 71 -37 71
-7 0 -50 -15 -95 -34 -130 -53 -374 -146 -384 -146 -6 0 -17 21 -26 48 -9 26
-26 72 -37 102 -26 69 -26 77 2 85 12 4 72 27 132 50 61 23 132 51 158 61 27
9 51 23 54 30 7 18 -57 184 -71 184 -11 0 -106 -34 -141 -50 -30 -14 -228 -90
-235 -90 -4 0 -24 45 -45 101 -42 112 -42 113 30 138 164 57 415 158 415 167
0 5 -15 48 -33 95 -33 86 -50 101 -87 80z"/>
<path d="M6250 2156 c-129 -28 -242 -117 -321 -252 -132 -227 -157 -486 -62
-652 44 -78 92 -121 183 -164 105 -51 187 -60 286 -33 35 9 67 21 70 26 3 5
11 9 19 9 10 0 15 -17 17 -61 l3 -61 47 -18 c35 -13 50 -15 56 -6 7 9 176 504
185 540 2 8 -424 159 -429 153 -2 -2 -64 -189 -64 -193 0 -1 43 -17 95 -35
101 -34 107 -41 79 -88 -30 -50 -80 -76 -150 -76 -53 0 -69 5 -105 30 -62 44
-82 83 -87 176 -5 85 4 135 45 244 76 204 192 292 318 239 76 -32 119 -106
113 -199 l-3 -50 40 -7 c22 -4 65 -12 95 -18 30 -5 68 -13 84 -16 l29 -7 -5
114 c-4 99 -9 121 -33 168 -35 69 -87 126 -150 166 -102 65 -248 95 -355 71z"/>
<path d="M7290 1870 c-205 -36 -373 -248 -411 -518 -45 -313 86 -545 336 -600
132 -29 207 -23 304 25 61 29 168 130 196 183 43 82 72 148 84 190 7 25 17 58
22 74 5 16 9 77 9 135 0 224 -84 391 -233 464 -87 42 -220 63 -307 47z m184
-230 c62 -30 87 -77 93 -174 8 -132 -44 -338 -107 -429 -41 -58 -78 -81 -139
-84 -73 -5 -126 24 -161 87 -68 121 6 473 121 576 51 46 129 55 193 24z"/>
<path d="M10378 1842 c-84 -19 -118 -31 -118 -41 0 -8 16 -82 35 -165 20 -83
44 -189 55 -236 24 -106 74 -323 105 -455 13 -55 29 -124 35 -153 7 -28 15
-54 19 -56 7 -5 126 21 471 103 69 16 142 33 163 37 20 3 39 10 42 14 5 8 -37
195 -46 204 -4 5 -103 -15 -305 -62 l-121 -28 -37 161 c-58 252 -63 270 -105
450 -22 94 -43 188 -48 209 -5 22 -13 40 -18 42 -6 1 -63 -10 -127 -24z"/>
<path d="M9830 1755 c-140 -18 -303 -38 -363 -45 l-107 -13 5 -31 c3 -17 16
-125 29 -241 13 -115 41 -348 62 -517 l39 -308 35 0 c46 0 741 87 747 94 3 2
0 44 -6 93 -6 48 -11 94 -11 102 0 18 -37 15 -458 -38 -35 -4 -65 -4 -67 0 -8
12 -27 209 -22 223 4 9 66 20 201 36 225 27 204 11 184 148 -6 47 -16 82 -22
81 -6 0 -96 -11 -201 -23 -104 -13 -192 -22 -193 -21 -5 5 -33 218 -29 222 3
2 495 63 514 63 6 0 -3 117 -14 178 -7 40 11 40 -323 -3z"/>
<path d="M8376 1550 c-18 -464 -26 -697 -28 -815 l-3 -130 219 -9 c164 -7 235
-6 288 4 201 36 359 195 402 405 46 223 -3 414 -142 554 -113 114 -191 136
-519 148 l-211 8 -6 -165z m420 -62 c51 -10 66 -19 109 -62 64 -65 86 -123 92
-248 5 -88 3 -104 -22 -177 -31 -87 -75 -146 -135 -177 -25 -12 -65 -19 -134
-22 l-99 -4 7 263 c4 145 9 303 13 352 l6 87 52 0 c28 0 78 -5 111 -12z"/>
</g>
</svg>
